<?xml version="1.0" encoding="UTF-8"?>
<svg xmlns="http://www.w3.org/2000/svg" viewBox="49.570920000000015 56.69892 716.43616 1039.6411600000001" width="512" height="512" role="img" aria-label="white N">
  <path fill="none" stroke="#11141A" stroke-width="62.17" stroke-linejoin="round" stroke-linecap="round" d="M 467.638 142.869 C 471.195 143.664 471.829 144.018 474.291 146.437 C 477.751 155.992 467.876 224.863 477.092 231.125 C 533.194 269.307 582.682 315.7 632.963 360.96 C 643.694 370.62 679.227 384.834 679.462 399.922 C 679.837 424.045 668.34 460.828 668.198 483.894 L 668.198 485.326 C 656.283 498.622 648.289 495.121 632.2 497.655 C 618.877 499.753 602.533 498.708 590.212 503.077 C 564.088 493.437 550.073 460.819 526.466 447.92 C 521.164 445.023 477.088 451.973 468.182 452.49 C 452.387 453.406 424.662 431.022 427.42 454.956 C 429.806 514.984 479.283 560.796 520.625 598.625 C 552.241 627.556 570.255 665.747 571.969 708.566 C 572.774 729.586 559.146 789.074 544.638 804.064 C 550.092 813.953 555.972 829.382 567.48 828.053 C 573.285 827.382 581.802 831.265 587.255 833.702 C 617.769 847.339 634.704 882.9 614.405 912.565 C 611.097 917.418 607.342 922.3 604.76 927.617 C 605.31 935.321 615.804 935.716 623.846 945.084 C 638.621 962.295 637.491 981.734 635.963 1003 C 629.64 1009.04 626.14 1009.61 617.169 1009.27 C 601.518 1008.69 585.992 1008.52 570.334 1008.56 L 256.448 1008.47 L 186.027 1008.57 C 173.198 1008.65 152.679 1010.17 141.078 1007.48 C 138.891 999.998 136.916 996.908 136.55 988.726 C 135.741 970.673 141.849 953.982 155.327 941.635 C 157.643 939.513 168.379 932.247 168.973 928.205 C 164.316 915.029 151.921 902.89 151.608 887.957 C 151.302 873.41 158.121 855.794 168.538 845.614 C 182.174 832.773 195.627 828.28 213.735 828.081 C 218.491 822.8 224.907 811.076 230.102 803.938 C 220.352 789.649 212.731 774.442 205.106 758.953 C 167.124 681.798 142.231 590.886 148.086 504.428 C 154.437 410.658 190.44 321.079 262.485 258.96 C 292.901 232.734 357.409 201.484 397.886 204.54 C 404.339 197.751 404.767 190.514 409.403 182.726 C 424.027 158.16 443.166 152.018 467.638 142.869 z M 403.859 411.05 C 401.817 406.137 400.654 401.474 398.876 397.002 C 395.379 388.21 395.087 379.965 395.738 370.495 C 395.946 367.464 397.916 364.685 396.487 361.393 C 396.157 360.481 395.448 358.514 393.938 359.75 C 386.667 365.696 384.523 371.499 382.502 380.294 C 379.901 382.949 378.577 388.009 377.135 391.78 C 367.551 416.844 363.317 438.684 363.88 465.434 C 365.198 528.103 416.139 587.958 459.712 629.164 C 486.079 654.099 503.616 667.759 504.748 707.435 C 505.062 718.427 505.049 740.267 497.443 749.371 C 495.423 751.789 483.297 751.454 479.655 751.447 C 428.879 750.974 378.101 750.82 327.323 750.983 C 311.545 751.002 295.735 751.413 279.978 751.439 C 272.875 751.45 264.717 732.973 262.184 727.659 C 235.066 670.783 216.258 610.607 213.034 547.341 C 209.055 469.274 231.618 377.541 289.388 321.635 C 304.049 307.695 320.347 295.587 337.925 285.574 C 358.811 273.605 372.055 279.701 371.919 249.886 C 371.895 244.514 372.291 242.543 369.344 237.923 C 367.225 236.639 366.376 235.878 363.749 236.427 C 355.587 238.133 345.502 243.796 337.755 247.161 C 279.918 272.28 238.407 316.832 210.967 372.854 C 164.858 466.989 169.547 580.395 203.047 677.685 C 209.098 695.257 241.911 779.273 255.379 785.908 C 266.634 791.452 493.074 787.928 523.688 788.038 C 525.712 776.227 532.302 764.865 535.462 753.202 C 545.09 717.653 543.893 675.366 522.239 644.263 C 513.403 631.572 504.146 621.948 492.854 611.326 C 444.212 565.569 388.709 508.923 400.693 435.908 C 402.597 424.306 412.019 424.377 403.859 411.05 z M 554.357 980.32 C 569.902 980.379 586.316 980.506 601.917 980.735 C 603.995 980.765 605.922 979.781 607.454 978.351 C 609.27 973.127 603.477 963.131 599.821 959.579 C 589.577 949.626 575.768 943.77 561.564 943.253 C 539.204 942.44 516.829 942.793 494.492 942.817 L 405.49 942.798 L 282.696 942.502 C 264.33 942.484 244.743 941.92 226.535 942.439 C 196.42 943.562 188.066 946.435 168.495 969.879 C 167.858 973.348 166.784 976.131 168.354 979.061 C 171.754 981.124 205.334 980.248 211.789 980.271 L 305.5 980.38 L 554.357 980.32 z M 240.896 824.833 C 238.024 829.543 235.974 832.941 232.558 837.358 C 232.344 841.821 231.727 844.949 233.548 848.965 C 234.291 849.525 235.034 850.085 235.777 850.645 C 313.936 852.927 440.896 850.955 514.25 851.667 C 518.832 851.731 536.588 852.896 538.6 849.287 C 545.048 837.722 527.516 817.773 515.933 816.949 C 506.479 816.276 497.781 816.6 488.961 816.634 L 441.647 816.626 C 381.059 816.287 320.47 816.525 259.888 817.338 C 251.755 819.039 248.267 820.316 240.896 824.833 z"/>
  <path fill="#F1EFED" d="M 467.638 142.869 C 471.195 143.664 471.829 144.018 474.291 146.437 C 477.751 155.992 467.876 224.863 477.092 231.125 C 533.194 269.307 582.682 315.7 632.963 360.96 C 643.694 370.62 679.227 384.834 679.462 399.922 C 679.837 424.045 668.34 460.828 668.198 483.894 L 668.198 485.326 C 656.283 498.622 648.289 495.121 632.2 497.655 C 618.877 499.753 602.533 498.708 590.212 503.077 C 564.088 493.437 550.073 460.819 526.466 447.92 C 521.164 445.023 477.088 451.973 468.182 452.49 C 452.387 453.406 424.662 431.022 427.42 454.956 C 429.806 514.984 479.283 560.796 520.625 598.625 C 552.241 627.556 570.255 665.747 571.969 708.566 C 572.774 729.586 559.146 789.074 544.638 804.064 C 550.092 813.953 555.972 829.382 567.48 828.053 C 573.285 827.382 581.802 831.265 587.255 833.702 C 617.769 847.339 634.704 882.9 614.405 912.565 C 611.097 917.418 607.342 922.3 604.76 927.617 C 605.31 935.321 615.804 935.716 623.846 945.084 C 638.621 962.295 637.491 981.734 635.963 1003 C 629.64 1009.04 626.14 1009.61 617.169 1009.27 C 601.518 1008.69 585.992 1008.52 570.334 1008.56 L 256.448 1008.47 L 186.027 1008.57 C 173.198 1008.65 152.679 1010.17 141.078 1007.48 C 138.891 999.998 136.916 996.908 136.55 988.726 C 135.741 970.673 141.849 953.982 155.327 941.635 C 157.643 939.513 168.379 932.247 168.973 928.205 C 164.316 915.029 151.921 902.89 151.608 887.957 C 151.302 873.41 158.121 855.794 168.538 845.614 C 182.174 832.773 195.627 828.28 213.735 828.081 C 218.491 822.8 224.907 811.076 230.102 803.938 C 220.352 789.649 212.731 774.442 205.106 758.953 C 167.124 681.798 142.231 590.886 148.086 504.428 C 154.437 410.658 190.44 321.079 262.485 258.96 C 292.901 232.734 357.409 201.484 397.886 204.54 C 404.339 197.751 404.767 190.514 409.403 182.726 C 424.027 158.16 443.166 152.018 467.638 142.869 z M 403.859 411.05 C 401.817 406.137 400.654 401.474 398.876 397.002 C 395.379 388.21 395.087 379.965 395.738 370.495 C 395.946 367.464 397.916 364.685 396.487 361.393 C 396.157 360.481 395.448 358.514 393.938 359.75 C 386.667 365.696 384.523 371.499 382.502 380.294 C 379.901 382.949 378.577 388.009 377.135 391.78 C 367.551 416.844 363.317 438.684 363.88 465.434 C 365.198 528.103 416.139 587.958 459.712 629.164 C 486.079 654.099 503.616 667.759 504.748 707.435 C 505.062 718.427 505.049 740.267 497.443 749.371 C 495.423 751.789 483.297 751.454 479.655 751.447 C 428.879 750.974 378.101 750.82 327.323 750.983 C 311.545 751.002 295.735 751.413 279.978 751.439 C 272.875 751.45 264.717 732.973 262.184 727.659 C 235.066 670.783 216.258 610.607 213.034 547.341 C 209.055 469.274 231.618 377.541 289.388 321.635 C 304.049 307.695 320.347 295.587 337.925 285.574 C 358.811 273.605 372.055 279.701 371.919 249.886 C 371.895 244.514 372.291 242.543 369.344 237.923 C 367.225 236.639 366.376 235.878 363.749 236.427 C 355.587 238.133 345.502 243.796 337.755 247.161 C 279.918 272.28 238.407 316.832 210.967 372.854 C 164.858 466.989 169.547 580.395 203.047 677.685 C 209.098 695.257 241.911 779.273 255.379 785.908 C 266.634 791.452 493.074 787.928 523.688 788.038 C 525.712 776.227 532.302 764.865 535.462 753.202 C 545.09 717.653 543.893 675.366 522.239 644.263 C 513.403 631.572 504.146 621.948 492.854 611.326 C 444.212 565.569 388.709 508.923 400.693 435.908 C 402.597 424.306 412.019 424.377 403.859 411.05 z M 554.357 980.32 C 569.902 980.379 586.316 980.506 601.917 980.735 C 603.995 980.765 605.922 979.781 607.454 978.351 C 609.27 973.127 603.477 963.131 599.821 959.579 C 589.577 949.626 575.768 943.77 561.564 943.253 C 539.204 942.44 516.829 942.793 494.492 942.817 L 405.49 942.798 L 282.696 942.502 C 264.33 942.484 244.743 941.92 226.535 942.439 C 196.42 943.562 188.066 946.435 168.495 969.879 C 167.858 973.348 166.784 976.131 168.354 979.061 C 171.754 981.124 205.334 980.248 211.789 980.271 L 305.5 980.38 L 554.357 980.32 z M 240.896 824.833 C 238.024 829.543 235.974 832.941 232.558 837.358 C 232.344 841.821 231.727 844.949 233.548 848.965 C 234.291 849.525 235.034 850.085 235.777 850.645 C 313.936 852.927 440.896 850.955 514.25 851.667 C 518.832 851.731 536.588 852.896 538.6 849.287 C 545.048 837.722 527.516 817.773 515.933 816.949 C 506.479 816.276 497.781 816.6 488.961 816.634 L 441.647 816.626 C 381.059 816.287 320.47 816.525 259.888 817.338 C 251.755 819.039 248.267 820.316 240.896 824.833 z"/>
  <path fill="#6B6A68" fill-opacity="0.129412" d="M 382.502 380.294 C 384.523 371.499 386.667 365.696 393.938 359.75 C 395.448 358.514 396.157 360.481 396.487 361.393 C 397.916 364.685 395.946 367.464 395.738 370.495 C 395.087 379.965 395.379 388.21 398.876 397.002 C 400.654 401.474 401.817 406.137 403.859 411.05 C 394.449 403.97 401.666 405.435 396.658 398.598 C 391.397 391.417 395.238 390.541 392.397 382.533 C 391.084 380.761 391.261 373.547 390.051 372.541 C 387.974 370.814 384.353 378.6 382.502 380.294 z"/>
</svg>
